<svg xmlns="http://www.w3.org/2000/svg" viewBox="0 0 800 500" role="img" aria-label="Muster-Screenshot: Kundendetail in der Aussendienst-App auf einem Laptop">
  <!-- Laptop display bezel -->
  <rect x="0" y="0" width="800" height="440" rx="8" fill="#1F2023"/>
  <rect x="20" y="20" width="760" height="400" rx="3" fill="#F7F6F3"/>
  <circle cx="400" cy="10" r="2" fill="#0B0B0D"/>

  <!-- Laptop base -->
  <path d="M0 440 L800 440 L760 478 L40 478 Z" fill="#2A2D33"/>
  <rect x="370" y="448" width="60" height="6" rx="3" fill="#0B0B0D"/>
  <line x1="0" y1="440" x2="800" y2="440" stroke="#0B0B0D" stroke-width="1"/>

  <!-- ===== Display content ===== -->
  <!-- Top app bar -->
  <rect x="20" y="20" width="760" height="44" rx="3" fill="#1A1A1C"/>
  <circle cx="44" cy="42" r="10" fill="#C8102E"/>
  <text x="44" y="46" font-family="Inter, Arial, sans-serif" font-size="11" fill="#fff" font-weight="700" text-anchor="middle">P</text>
  <text x="64" y="46" font-family="Inter, Arial, sans-serif" font-size="13" fill="#fff" font-weight="700">Optimo · Außendienst</text>
  <text x="220" y="46" font-family="Inter, Arial, sans-serif" font-size="11" fill="#B0AEA8">Dashboard · Termine · Kunden · Angebote · Berichte</text>
  <circle cx="730" cy="42" r="6" fill="#2F8F45"/>
  <text x="744" y="46" font-family="Inter, Arial, sans-serif" font-size="11" fill="#B0AEA8">Online</text>

  <!-- Breadcrumb -->
  <text x="44" y="92" font-family="Inter, Arial, sans-serif" font-size="11" fill="#8A8A90">Kunden  ›  Möbelhaus Steiner GmbH</text>

  <!-- Customer header card -->
  <rect x="44" y="104" width="718" height="74" rx="6" fill="#fff" stroke="#E7E4DE"/>
  <!-- Avatar -->
  <rect x="60" y="120" width="42" height="42" rx="6" fill="#ECEAE5"/>
  <text x="81" y="148" font-family="Inter, Arial, sans-serif" font-size="16" fill="#1A1A1C" font-weight="700" text-anchor="middle">S</text>

  <text x="116" y="130" font-family="Inter, Arial, sans-serif" font-size="10" fill="#8A8A90" font-weight="600">KUNDE 10042 · A-Kunde</text>
  <text x="116" y="150" font-family="Inter, Arial, sans-serif" font-size="16" fill="#1A1A1C" font-weight="700">Möbelhaus Steiner GmbH</text>
  <text x="116" y="166" font-family="Inter, Arial, sans-serif" font-size="11" fill="#666">Bahnhofstraße 24 · 4020 Linz · Hr. Steiner</text>

  <!-- Quick actions -->
  <rect x="572" y="120" width="86" height="32" rx="6" fill="#fff" stroke="#1A1A1C" stroke-width="1.2"/>
  <text x="615" y="140" font-family="Inter, Arial, sans-serif" font-size="11" fill="#1A1A1C" font-weight="600" text-anchor="middle">Termin</text>

  <rect x="666" y="120" width="86" height="32" rx="6" fill="#C8102E"/>
  <text x="709" y="140" font-family="Inter, Arial, sans-serif" font-size="11" fill="#fff" font-weight="600" text-anchor="middle">Angebot</text>

  <!-- Tab bar -->
  <line x1="44" y1="200" x2="762" y2="200" stroke="#E7E4DE"/>
  <text x="48" y="194" font-family="Inter, Arial, sans-serif" font-size="11" fill="#C8102E" font-weight="700">Übersicht</text>
  <rect x="42" y="198" width="58" height="3" fill="#C8102E"/>
  <text x="118" y="194" font-family="Inter, Arial, sans-serif" font-size="11" fill="#8A8A90" font-weight="600">Bestellungen</text>
  <text x="206" y="194" font-family="Inter, Arial, sans-serif" font-size="11" fill="#8A8A90" font-weight="600">Artikel</text>
  <text x="266" y="194" font-family="Inter, Arial, sans-serif" font-size="11" fill="#8A8A90" font-weight="600">Notizen</text>
  <text x="328" y="194" font-family="Inter, Arial, sans-serif" font-size="11" fill="#8A8A90" font-weight="600">Kontakte</text>

  <!-- Section labels -->
  <text x="44" y="224" font-family="Inter, Arial, sans-serif" font-size="10" fill="#8A8A90" font-weight="700" letter-spacing="1.5">STAMMDATEN</text>
  <text x="408" y="224" font-family="Inter, Arial, sans-serif" font-size="10" fill="#8A8A90" font-weight="700" letter-spacing="1.5">BESTELLHISTORIE</text>

  <!-- LEFT: master data -->
  <rect x="44" y="236" width="354" height="172" rx="6" fill="#fff" stroke="#E7E4DE"/>
  <g font-family="Inter, Arial, sans-serif">
    <text x="60" y="258" font-size="9" fill="#8A8A90" font-weight="600">UMSATZ LFD. JAHR</text>
    <text x="60" y="276" font-size="14" fill="#1A1A1C" font-weight="700">€ 42.180,–</text>

    <text x="220" y="258" font-size="9" fill="#8A8A90" font-weight="600">VORJAHR (gleicher Zeitraum)</text>
    <text x="220" y="276" font-size="14" fill="#1A1A1C" font-weight="700">€ 37.650,–</text>

    <line x1="60" y1="290" x2="382" y2="290" stroke="#E7E4DE"/>

    <text x="60" y="310" font-size="9" fill="#8A8A90" font-weight="600">ZAHLUNGSZIEL</text>
    <text x="60" y="328" font-size="12" fill="#1A1A1C" font-weight="600">30 Tage netto</text>

    <text x="220" y="310" font-size="9" fill="#8A8A90" font-weight="600">RABATTGRUPPE</text>
    <text x="220" y="328" font-size="12" fill="#1A1A1C" font-weight="600">A · 12 %</text>

    <line x1="60" y1="342" x2="382" y2="342" stroke="#E7E4DE"/>

    <text x="60" y="362" font-size="9" fill="#8A8A90" font-weight="600">LETZTER BESUCH</text>
    <text x="60" y="380" font-size="12" fill="#1A1A1C" font-weight="600">18. März 2026</text>
    <text x="60" y="394" font-size="10" fill="#666">Jahresgespräch · Sortimentsumbau</text>
  </g>

  <!-- RIGHT: order history -->
  <rect x="408" y="236" width="354" height="172" rx="6" fill="#fff" stroke="#E7E4DE"/>
  <g font-family="Inter, Arial, sans-serif">
    <text x="424" y="258" font-size="10" fill="#1A1A1C" font-weight="700">AB-2026-1142</text>
    <text x="424" y="274" font-size="11" fill="#1A1A1C">14 Matratzen · 6 Lattenroste</text>
    <text x="700" y="258" font-size="10" fill="#8A8A90" font-weight="600" text-anchor="end">12.04.2026</text>
    <text x="700" y="274" font-size="12" fill="#1A1A1C" font-weight="700" text-anchor="end">€ 6.480,–</text>

    <line x1="424" y1="288" x2="746" y2="288" stroke="#E7E4DE"/>

    <text x="424" y="306" font-size="10" fill="#1A1A1C" font-weight="700">AB-2026-0891</text>
    <text x="424" y="322" font-size="11" fill="#1A1A1C">22 Bettrahmen Eiche</text>
    <text x="700" y="306" font-size="10" fill="#8A8A90" font-weight="600" text-anchor="end">28.02.2026</text>
    <text x="700" y="322" font-size="12" fill="#1A1A1C" font-weight="700" text-anchor="end">€ 11.220,–</text>

    <line x1="424" y1="336" x2="746" y2="336" stroke="#E7E4DE"/>

    <text x="424" y="354" font-size="10" fill="#1A1A1C" font-weight="700">AB-2026-0612</text>
    <text x="424" y="370" font-size="11" fill="#1A1A1C">8 Boxspring Premium</text>
    <text x="700" y="354" font-size="10" fill="#8A8A90" font-weight="600" text-anchor="end">21.01.2026</text>
    <text x="700" y="370" font-size="12" fill="#1A1A1C" font-weight="700" text-anchor="end">€ 9.840,–</text>

    <text x="424" y="396" font-size="10" fill="#C8102E" font-weight="700" text-decoration="underline">Alle 12 Bestellungen ansehen</text>
  </g>

  <!-- Watermark -->
  <text x="400" y="492" font-family="Inter, Arial, sans-serif" font-size="9" fill="#B0AEA8" text-anchor="middle" letter-spacing="2">MUSTER · VORSCHAU</text>
</svg>
