<svg xmlns="http://www.w3.org/2000/svg" viewBox="0 0 360 640" role="img" aria-label="Muster-Screenshot: Inventur-Ansicht der Scanner-App">
  <!-- Phone frame -->
  <rect x="0" y="0" width="360" height="640" rx="36" fill="#1F2023"/>
  <rect x="12" y="12" width="336" height="616" rx="26" fill="#F7F6F3"/>

  <!-- Status bar -->
  <rect x="140" y="24" width="80" height="18" rx="9" fill="#1F2023"/>

  <!-- App header -->
  <rect x="28" y="62" width="304" height="56" rx="10" fill="#ECEAE5"/>
  <text x="44" y="85" font-family="Inter, Arial, sans-serif" font-size="12" fill="#8A8A90" font-weight="500">INVENTUR · HALLE 3</text>
  <text x="44" y="106" font-family="Inter, Arial, sans-serif" font-size="16" fill="#1A1A1C" font-weight="700">Zählung läuft</text>
  <rect x="280" y="77" width="36" height="26" rx="13" fill="#C8102E"/>
  <text x="298" y="95" font-family="Inter, Arial, sans-serif" font-size="11" fill="#fff" font-weight="700" text-anchor="middle">12</text>

  <!-- Scanner area -->
  <rect x="28" y="132" width="304" height="108" rx="12" fill="#14151A"/>
  <rect x="92" y="164" width="176" height="44" rx="6" fill="none" stroke="#C8102E" stroke-width="2" stroke-dasharray="6 4"/>
  <g stroke="#fff" stroke-width="2">
    <line x1="100" y1="170" x2="100" y2="202"/>
    <line x1="108" y1="170" x2="108" y2="202"/>
    <line x1="116" y1="170" x2="116" y2="202" stroke-width="4"/>
    <line x1="124" y1="170" x2="124" y2="202"/>
    <line x1="134" y1="170" x2="134" y2="202" stroke-width="3"/>
    <line x1="142" y1="170" x2="142" y2="202"/>
    <line x1="150" y1="170" x2="150" y2="202" stroke-width="4"/>
    <line x1="160" y1="170" x2="160" y2="202"/>
    <line x1="170" y1="170" x2="170" y2="202" stroke-width="3"/>
    <line x1="178" y1="170" x2="178" y2="202"/>
    <line x1="186" y1="170" x2="186" y2="202" stroke-width="4"/>
    <line x1="196" y1="170" x2="196" y2="202"/>
    <line x1="206" y1="170" x2="206" y2="202" stroke-width="3"/>
    <line x1="216" y1="170" x2="216" y2="202"/>
    <line x1="226" y1="170" x2="226" y2="202" stroke-width="4"/>
    <line x1="236" y1="170" x2="236" y2="202"/>
    <line x1="246" y1="170" x2="246" y2="202" stroke-width="3"/>
    <line x1="254" y1="170" x2="254" y2="202"/>
  </g>

  <!-- List items -->
  <g font-family="Inter, Arial, sans-serif">
    <rect x="28" y="256" width="304" height="72" rx="10" fill="#fff" stroke="#E7E4DE"/>
    <text x="44" y="278" font-size="10" fill="#8A8A90" font-weight="600">ART-4502 · Matratzenkern</text>
    <text x="44" y="300" font-size="15" fill="#1A1A1C" font-weight="700">120 × 200 Comfort</text>
    <text x="44" y="318" font-size="11" fill="#666">Soll: 24 · Ist: 24</text>
    <circle cx="308" cy="292" r="14" fill="#E8F2E9"/>
    <path d="M302 292 l4 4 l8 -9" stroke="#2F8F45" stroke-width="2.5" fill="none" stroke-linecap="round"/>

    <rect x="28" y="340" width="304" height="72" rx="10" fill="#fff" stroke="#E7E4DE"/>
    <text x="44" y="362" font-size="10" fill="#8A8A90" font-weight="600">ART-4518 · Matratzenkern</text>
    <text x="44" y="384" font-size="15" fill="#1A1A1C" font-weight="700">140 × 200 Premium</text>
    <text x="44" y="402" font-size="11" fill="#C8102E" font-weight="600">Soll: 18 · Ist: 16 · Abweichung</text>
    <circle cx="308" cy="376" r="14" fill="#FCEAED"/>
    <text x="308" y="381" font-size="16" fill="#C8102E" text-anchor="middle" font-weight="700">!</text>

    <rect x="28" y="424" width="304" height="72" rx="10" fill="#fff" stroke="#E7E4DE"/>
    <text x="44" y="446" font-size="10" fill="#8A8A90" font-weight="600">ART-4730 · Lattenrost</text>
    <text x="44" y="468" font-size="15" fill="#1A1A1C" font-weight="700">90 × 200 Basic</text>
    <text x="44" y="486" font-size="11" fill="#666">Zählung läuft…</text>
    <circle cx="308" cy="460" r="14" fill="#EEECE7"/>
    <circle cx="308" cy="460" r="5" fill="#8A8A90"/>
  </g>

  <!-- Primary button -->
  <rect x="28" y="528" width="304" height="56" rx="10" fill="#C8102E"/>
  <text x="180" y="562" font-family="Inter, Arial, sans-serif" font-size="15" fill="#fff" font-weight="700" text-anchor="middle">Buchung an Business Central</text>

  <!-- Watermark -->
  <text x="180" y="612" font-family="Inter, Arial, sans-serif" font-size="9" fill="#B0AEA8" text-anchor="middle" letter-spacing="2">MUSTER · VORSCHAU</text>
</svg>
