<svg xmlns="http://www.w3.org/2000/svg" viewBox="0 0 720 480" role="img" aria-label="Muster-Screenshot: Kundendetails in der Außendienst-Web-App">
  <rect x="0" y="0" width="720" height="480" rx="16" fill="#1F2023"/>
  <rect x="8" y="8" width="704" height="464" rx="10" fill="#F7F6F3"/>
  <rect x="8" y="8" width="704" height="44" rx="10" fill="#ECEAE5"/>
  <rect x="180" y="20" width="360" height="20" rx="10" fill="#fff" stroke="#E1DFD8"/>
  <text x="200" y="34" font-family="Inter, Arial, sans-serif" font-size="10" fill="#8A8A90">optimo.at/aussendienst/kunden/0442</text>

  <rect x="8" y="52" width="150" height="420" fill="#14151A"/>
  <g font-family="Inter, Arial, sans-serif" font-size="11">
    <text x="28" y="82" fill="#B0AEA8">Übersicht</text>
    <rect x="28" y="96" width="110" height="28" rx="6" fill="#C8102E"/>
    <text x="44" y="114" fill="#fff" font-weight="700">Kunden</text>
    <text x="28" y="146" fill="#B0AEA8">Artikel</text>
    <text x="28" y="170" fill="#B0AEA8">Besuche</text>
    <text x="28" y="194" fill="#B0AEA8">Aufträge</text>
  </g>

  <!-- Header -->
  <text x="182" y="80" font-family="Inter, Arial, sans-serif" font-size="10" fill="#8A8A90" font-weight="600">KUNDEN · 0442</text>
  <text x="182" y="104" font-family="Inter, Arial, sans-serif" font-size="20" fill="#1A1A1C" font-weight="700">Möbel Huber GmbH</text>
  <text x="182" y="124" font-family="Inter, Arial, sans-serif" font-size="11" fill="#666">Innsbruck · Tirol · Fachhandel · seit 2014</text>

  <!-- Tabs -->
  <g font-family="Inter, Arial, sans-serif" font-size="11">
    <rect x="182" y="140" width="84" height="28" rx="6" fill="#1A1A1C"/>
    <text x="224" y="158" fill="#fff" font-weight="700" text-anchor="middle">Übersicht</text>
    <text x="288" y="158" fill="#666" text-anchor="middle">Umsatz</text>
    <text x="352" y="158" fill="#666" text-anchor="middle">Aufträge</text>
    <text x="420" y="158" fill="#666" text-anchor="middle">Besuche</text>
    <text x="488" y="158" fill="#666" text-anchor="middle">Artikel</text>
  </g>

  <!-- KPIs -->
  <g font-family="Inter, Arial, sans-serif">
    <rect x="182" y="184" width="164" height="80" rx="10" fill="#fff" stroke="#E7E4DE"/>
    <text x="198" y="206" font-size="10" fill="#8A8A90" font-weight="600">UMSATZ 2026 YTD</text>
    <text x="198" y="236" font-size="22" fill="#1A1A1C" font-weight="700">€ 184.600</text>
    <text x="198" y="254" font-size="11" fill="#2F8F45" font-weight="600">▲ +8 % ggü. Vorjahr</text>

    <rect x="356" y="184" width="164" height="80" rx="10" fill="#fff" stroke="#E7E4DE"/>
    <text x="372" y="206" font-size="10" fill="#8A8A90" font-weight="600">LETZTER BESUCH</text>
    <text x="372" y="236" font-size="16" fill="#1A1A1C" font-weight="700">14. März 2026</text>
    <text x="372" y="254" font-size="11" fill="#666">durch Martin K.</text>

    <rect x="530" y="184" width="158" height="80" rx="10" fill="#fff" stroke="#E7E4DE"/>
    <text x="546" y="206" font-size="10" fill="#8A8A90" font-weight="600">OFFENE POSTEN</text>
    <text x="546" y="236" font-size="22" fill="#1A1A1C" font-weight="700">€ 12.480</text>
    <text x="546" y="254" font-size="11" fill="#C8102E" font-weight="600">2 überfällig</text>
  </g>

  <!-- Recent orders table -->
  <rect x="182" y="280" width="506" height="180" rx="10" fill="#fff" stroke="#E7E4DE"/>
  <text x="198" y="302" font-family="Inter, Arial, sans-serif" font-size="12" fill="#1A1A1C" font-weight="700">Letzte Aufträge</text>

  <!-- Table header -->
  <g font-family="Inter, Arial, sans-serif" font-size="10" fill="#8A8A90" font-weight="700" letter-spacing="1">
    <text x="198" y="328">AUFTRAG</text>
    <text x="310" y="328">DATUM</text>
    <text x="400" y="328">POSITIONEN</text>
    <text x="520" y="328">BETRAG</text>
    <text x="670" y="328" text-anchor="end">STATUS</text>
  </g>
  <line x1="198" y1="336" x2="672" y2="336" stroke="#EFEDE7"/>

  <!-- Rows -->
  <g font-family="Inter, Arial, sans-serif" font-size="11" fill="#1A1A1C">
    <text x="198" y="356" font-weight="700">A-2026-0847</text>
    <text x="310" y="356">18.03.2026</text>
    <text x="400" y="356">12</text>
    <text x="520" y="356">€ 8.240</text>
    <rect x="628" y="344" width="44" height="18" rx="9" fill="#E8F2E9"/>
    <text x="650" y="357" font-size="10" fill="#2F8F45" font-weight="700" text-anchor="middle">BEZAHLT</text>

    <text x="198" y="384" font-weight="700">A-2026-0812</text>
    <text x="310" y="384">07.03.2026</text>
    <text x="400" y="384">6</text>
    <text x="520" y="384">€ 4.120</text>
    <rect x="628" y="372" width="44" height="18" rx="9" fill="#E8F2E9"/>
    <text x="650" y="385" font-size="10" fill="#2F8F45" font-weight="700" text-anchor="middle">BEZAHLT</text>

    <text x="198" y="412" font-weight="700">A-2026-0778</text>
    <text x="310" y="412">22.02.2026</text>
    <text x="400" y="412">18</text>
    <text x="520" y="412">€ 12.480</text>
    <rect x="622" y="400" width="52" height="18" rx="9" fill="#FCEAED"/>
    <text x="650" y="413" font-size="10" fill="#C8102E" font-weight="700" text-anchor="middle">OFFEN</text>

    <text x="198" y="440" font-weight="700">A-2026-0742</text>
    <text x="310" y="440">11.02.2026</text>
    <text x="400" y="440">4</text>
    <text x="520" y="440">€ 2.160</text>
    <rect x="628" y="428" width="44" height="18" rx="9" fill="#E8F2E9"/>
    <text x="650" y="441" font-size="10" fill="#2F8F45" font-weight="700" text-anchor="middle">BEZAHLT</text>
  </g>

  <text x="450" y="470" font-family="Inter, Arial, sans-serif" font-size="9" fill="#B0AEA8" text-anchor="middle" letter-spacing="2">MUSTER · VORSCHAU</text>
</svg>
