<svg xmlns="http://www.w3.org/2000/svg" viewBox="0 0 800 500" role="img" aria-label="Muster-Screenshot: Artikelkarte mit Etikettenparametern in Business Central auf einem Laptop">
  <!-- Laptop display bezel -->
  <rect x="0" y="0" width="800" height="440" rx="8" fill="#1F2023"/>
  <rect x="20" y="20" width="760" height="400" rx="3" fill="#F7F6F3"/>
  <circle cx="400" cy="10" r="2" fill="#0B0B0D"/>

  <!-- Laptop base -->
  <path d="M0 440 L800 440 L760 478 L40 478 Z" fill="#2A2D33"/>
  <rect x="370" y="448" width="60" height="6" rx="3" fill="#0B0B0D"/>
  <line x1="0" y1="440" x2="800" y2="440" stroke="#0B0B0D" stroke-width="1"/>

  <!-- ===== Display content ===== -->
  <!-- Top app bar (Business Central style) -->
  <rect x="20" y="20" width="760" height="40" rx="3" fill="#1A1A1C"/>

  <!-- BC waffle / app launcher -->
  <g fill="#fff">
    <rect x="36" y="34" width="3" height="3"/>
    <rect x="42" y="34" width="3" height="3"/>
    <rect x="48" y="34" width="3" height="3"/>
    <rect x="36" y="40" width="3" height="3"/>
    <rect x="42" y="40" width="3" height="3"/>
    <rect x="48" y="40" width="3" height="3"/>
    <rect x="36" y="46" width="3" height="3"/>
    <rect x="42" y="46" width="3" height="3"/>
    <rect x="48" y="46" width="3" height="3"/>
  </g>

  <text x="64" y="45" font-family="Inter, Arial, sans-serif" font-size="13" fill="#fff" font-weight="700">Dynamics 365 Business Central</text>
  <text x="294" y="45" font-family="Inter, Arial, sans-serif" font-size="11" fill="#B0AEA8">Optimo · Produktion</text>

  <!-- Search field -->
  <rect x="520" y="30" width="180" height="20" rx="3" fill="#2A2D33"/>
  <circle cx="532" cy="40" r="4" fill="none" stroke="#8A8A90" stroke-width="1.2"/>
  <line x1="535" y1="43" x2="538" y2="46" stroke="#8A8A90" stroke-width="1.2"/>
  <text x="544" y="44" font-family="Inter, Arial, sans-serif" font-size="10" fill="#8A8A90">Suchen (Strg + F3)</text>

  <!-- Notifications + avatar -->
  <circle cx="722" cy="40" r="5" fill="none" stroke="#B0AEA8" stroke-width="1.2"/>
  <path d="M719 39 q3 -3 6 0" fill="none" stroke="#B0AEA8" stroke-width="1.2"/>
  <circle cx="754" cy="40" r="10" fill="#C8102E"/>
  <text x="754" y="44" font-family="Inter, Arial, sans-serif" font-size="9" fill="#fff" font-weight="700" text-anchor="middle">SB</text>

  <!-- Breadcrumb -->
  <text x="36" y="82" font-family="Inter, Arial, sans-serif" font-size="11" fill="#8A8A90">Artikel  ›  ART-4502  ·  Matratze Comfort</text>

  <!-- Action ribbon -->
  <rect x="36" y="94" width="708" height="30" rx="3" fill="#fff" stroke="#E7E4DE"/>
  <text x="52" y="113" font-family="Inter, Arial, sans-serif" font-size="11" fill="#1A1A1C" font-weight="700">Start</text>
  <rect x="48" y="118" width="34" height="2" fill="#C8102E"/>
  <text x="100" y="113" font-family="Inter, Arial, sans-serif" font-size="11" fill="#8A8A90">Aktionen</text>
  <text x="160" y="113" font-family="Inter, Arial, sans-serif" font-size="11" fill="#8A8A90">Navigieren</text>
  <text x="232" y="113" font-family="Inter, Arial, sans-serif" font-size="11" fill="#8A8A90">Bericht</text>

  <line x1="290" y1="100" x2="290" y2="118" stroke="#E7E4DE"/>

  <rect x="304" y="100" width="116" height="18" rx="3" fill="#C8102E"/>
  <text x="362" y="113" font-family="Inter, Arial, sans-serif" font-size="10" fill="#fff" font-weight="700" text-anchor="middle">Etikett drucken</text>

  <rect x="428" y="100" width="92" height="18" rx="3" fill="#fff" stroke="#1A1A1C" stroke-width="1"/>
  <text x="474" y="113" font-family="Inter, Arial, sans-serif" font-size="10" fill="#1A1A1C" font-weight="700" text-anchor="middle">PDF-Vorschau</text>

  <rect x="528" y="100" width="96" height="18" rx="3" fill="#fff" stroke="#E7E4DE"/>
  <text x="576" y="113" font-family="Inter, Arial, sans-serif" font-size="10" fill="#1A1A1C" font-weight="600" text-anchor="middle">Druckhistorie</text>

  <!-- Page heading -->
  <text x="36" y="152" font-family="Inter, Arial, sans-serif" font-size="19" fill="#1A1A1C" font-weight="700">ART-4502 · Matratze Comfort 120 × 200</text>
  <text x="36" y="170" font-family="Inter, Arial, sans-serif" font-size="11" fill="#8A8A90">Artikelkarte · Härtegrad H3 · Charge 2026-19</text>

  <!-- FastTab strip -->
  <line x1="36" y1="190" x2="744" y2="190" stroke="#E7E4DE"/>
  <text x="40" y="207" font-family="Inter, Arial, sans-serif" font-size="11" fill="#8A8A90" font-weight="600">Allgemein</text>
  <text x="106" y="207" font-family="Inter, Arial, sans-serif" font-size="11" fill="#8A8A90" font-weight="600">Lager</text>
  <text x="146" y="207" font-family="Inter, Arial, sans-serif" font-size="11" fill="#8A8A90" font-weight="600">Preise</text>
  <text x="194" y="207" font-family="Inter, Arial, sans-serif" font-size="11" fill="#C8102E" font-weight="700">Etikettenparameter</text>
  <rect x="190" y="213" width="118" height="2" fill="#C8102E"/>
  <text x="324" y="207" font-family="Inter, Arial, sans-serif" font-size="11" fill="#8A8A90" font-weight="600">Buchung</text>
  <text x="380" y="207" font-family="Inter, Arial, sans-serif" font-size="11" fill="#8A8A90" font-weight="600">Übersetzungen</text>

  <!-- ============ FastTab body: 3 columns ============ -->
  <!-- LEFT: parameter form -->
  <rect x="36" y="226" width="276" height="184" rx="6" fill="#fff" stroke="#E7E4DE"/>
  <text x="50" y="244" font-family="Inter, Arial, sans-serif" font-size="9" fill="#8A8A90" font-weight="700" letter-spacing="1.5">PARAMETER</text>

  <g font-family="Inter, Arial, sans-serif">
    <text x="50" y="262" font-size="9" fill="#8A8A90" font-weight="600">VORLAGE</text>
    <text x="50" y="276" font-size="11" fill="#1A1A1C" font-weight="600">Matratze Standard 105 × 148</text>
    <line x1="50" y1="284" x2="298" y2="284" stroke="#F0EDE6"/>

    <text x="50" y="300" font-size="9" fill="#8A8A90" font-weight="600">GRÖSSE  ·  HÄRTEGRAD</text>
    <text x="50" y="314" font-size="11" fill="#1A1A1C" font-weight="600">120 × 200 cm  ·  H3 · mittel</text>
    <line x1="50" y1="322" x2="298" y2="322" stroke="#F0EDE6"/>

    <text x="50" y="338" font-size="9" fill="#8A8A90" font-weight="600">HINWEISTEXT</text>
    <text x="50" y="352" font-size="11" fill="#C8102E" font-weight="600">⚡ elektrische Federleiste</text>
    <line x1="50" y1="360" x2="298" y2="360" stroke="#F0EDE6"/>

    <text x="50" y="376" font-size="9" fill="#8A8A90" font-weight="600">SPRACHEN</text>
    <text x="50" y="390" font-size="11" fill="#1A1A1C" font-weight="600">DE  ·  EN</text>
    <line x1="50" y1="398" x2="298" y2="398" stroke="#F0EDE6"/>
  </g>

  <!-- MIDDLE: active bricks -->
  <rect x="320" y="226" width="244" height="184" rx="6" fill="#fff" stroke="#E7E4DE"/>
  <text x="334" y="244" font-family="Inter, Arial, sans-serif" font-size="9" fill="#8A8A90" font-weight="700" letter-spacing="1.5">AKTIVE BAUSTEINE</text>
  <text x="552" y="244" font-family="Inter, Arial, sans-serif" font-size="9" fill="#8A8A90" font-weight="600" text-anchor="end">7 / 238</text>

  <!-- Bauelement chips: 2 rows of 4 -->
  <g>
    <!-- Optimo logo -->
    <rect x="334" y="252" width="50" height="30" rx="3" fill="#C8102E"/>
    <text x="359" y="271" font-family="Inter, Arial, sans-serif" font-size="9" fill="#fff" font-weight="800" text-anchor="middle" letter-spacing="1">OPTIMO</text>

    <!-- FSC -->
    <rect x="388" y="252" width="50" height="30" rx="3" fill="#ECEAE5"/>
    <text x="413" y="271" font-family="Inter, Arial, sans-serif" font-size="11" fill="#2F8F45" font-weight="700" text-anchor="middle">FSC</text>

    <!-- Recycling -->
    <rect x="442" y="252" width="50" height="30" rx="3" fill="#ECEAE5"/>
    <path d="M461 272 l5 -9 l5 9 l-5 -2 l-5 2 z M466 261 l5 5 l-5 0 z M471 269 l-5 5 l0 -5 z" fill="#2F8F45"/>

    <!-- Made in AT flag -->
    <rect x="496" y="252" width="50" height="30" rx="3" fill="#ECEAE5"/>
    <rect x="513" y="258" width="16" height="20" fill="#fff" stroke="#1A1A1C" stroke-width="0.6"/>
    <rect x="513" y="258" width="16" height="6" fill="#C8102E"/>
    <rect x="513" y="272" width="16" height="6" fill="#C8102E"/>

    <!-- Row 2 -->
    <!-- Pflege 30° -->
    <rect x="334" y="286" width="50" height="30" rx="3" fill="#ECEAE5"/>
    <path d="M347 304 q6 -8 12 0 q-6 8 -12 0 z" fill="none" stroke="#1A1A1C" stroke-width="1.2"/>
    <text x="372" y="306" font-family="Inter, Arial, sans-serif" font-size="9" fill="#1A1A1C" font-weight="700" text-anchor="middle">30°</text>

    <!-- Profi-Pflege -->
    <rect x="388" y="286" width="50" height="30" rx="3" fill="#ECEAE5"/>
    <circle cx="413" cy="301" r="8" fill="none" stroke="#1A1A1C" stroke-width="1.2"/>
    <text x="413" y="305" font-family="Inter, Arial, sans-serif" font-size="11" fill="#1A1A1C" font-weight="700" text-anchor="middle">P</text>

    <!-- CE -->
    <rect x="442" y="286" width="50" height="30" rx="3" fill="#ECEAE5"/>
    <text x="467" y="306" font-family="Inter, Arial, sans-serif" font-size="11" fill="#1A1A1C" font-weight="700" text-anchor="middle">CE</text>

    <!-- + add -->
    <rect x="496" y="286" width="50" height="30" rx="3" fill="#fff" stroke="#C8102E" stroke-width="1.2" stroke-dasharray="3 2"/>
    <text x="521" y="306" font-family="Inter, Arial, sans-serif" font-size="14" fill="#C8102E" font-weight="700" text-anchor="middle">+</text>
  </g>

  <line x1="334" y1="332" x2="552" y2="332" stroke="#F0EDE6"/>

  <text x="334" y="350" font-family="Inter, Arial, sans-serif" font-size="9" fill="#8A8A90" font-weight="700" letter-spacing="1.2">BIBLIOTHEK</text>
  <text x="334" y="364" font-family="Inter, Arial, sans-serif" font-size="11" fill="#1A1A1C">Bausteine aus zentraler BC-Bibliothek</text>
  <text x="334" y="378" font-family="Inter, Arial, sans-serif" font-size="10" fill="#8A8A90">238 Bausteine · 12 Gruppen · versioniert</text>

  <text x="334" y="398" font-family="Inter, Arial, sans-serif" font-size="9" fill="#8A8A90" font-weight="700" letter-spacing="1.2">LETZTER DRUCK</text>
  <text x="334" y="412" font-family="Inter, Arial, sans-serif" font-size="10" fill="#1A1A1C" font-weight="600">12.05.2026  ·  240 Stück  ·  v4</text>

  <!-- RIGHT FACTBOX: small preview -->
  <rect x="572" y="226" width="172" height="184" rx="6" fill="#fff" stroke="#E7E4DE"/>
  <text x="586" y="244" font-family="Inter, Arial, sans-serif" font-size="9" fill="#8A8A90" font-weight="700" letter-spacing="1.5">DRUCKVORSCHAU</text>

  <!-- Mini label -->
  <rect x="592" y="252" width="132" height="142" rx="2" fill="#fff" stroke="#1A1A1C" stroke-width="0.6"/>
  <rect x="592" y="252" width="132" height="26" fill="#C8102E"/>
  <text x="658" y="270" font-family="Inter, Arial, sans-serif" font-size="11" fill="#fff" font-weight="800" text-anchor="middle" letter-spacing="2">OPTIMO</text>

  <text x="658" y="292" font-family="Inter, Arial, sans-serif" font-size="10" fill="#1A1A1C" font-weight="700" text-anchor="middle">Matratze Comfort</text>
  <text x="658" y="305" font-family="Inter, Arial, sans-serif" font-size="8" fill="#1A1A1C" text-anchor="middle">120 × 200 · H3</text>

  <!-- Mini symbol row -->
  <g>
    <rect x="600" y="312" width="16" height="16" rx="2" fill="#F7F6F3"/>
    <text x="608" y="323" font-family="Inter, Arial, sans-serif" font-size="6" fill="#2F8F45" font-weight="700" text-anchor="middle">FSC</text>

    <rect x="620" y="312" width="16" height="16" rx="2" fill="#F7F6F3"/>
    <path d="M626 324 l2 -4 l2 4 l-2 -1 l-2 1 z M628 318 l2 2 l-2 0 z" fill="#2F8F45"/>

    <rect x="640" y="312" width="16" height="16" rx="2" fill="#F7F6F3"/>
    <path d="M644 322 q4 -5 8 0 q-4 5 -8 0 z" fill="none" stroke="#1A1A1C" stroke-width="0.7"/>
    <text x="648" y="328" font-family="Inter, Arial, sans-serif" font-size="5" fill="#1A1A1C" font-weight="700" text-anchor="middle">30°</text>

    <rect x="660" y="312" width="16" height="16" rx="2" fill="#F7F6F3"/>
    <circle cx="668" cy="320" r="4" fill="none" stroke="#1A1A1C" stroke-width="0.7"/>
    <text x="668" y="323" font-family="Inter, Arial, sans-serif" font-size="6" fill="#1A1A1C" font-weight="700" text-anchor="middle">P</text>

    <rect x="680" y="312" width="16" height="16" rx="2" fill="#F7F6F3"/>
    <text x="688" y="324" font-family="Inter, Arial, sans-serif" font-size="7" fill="#1A1A1C" font-weight="800" text-anchor="middle">CE</text>

    <rect x="700" y="312" width="16" height="16" rx="2" fill="#F7F6F3"/>
    <rect x="705" y="316" width="6" height="8" fill="#fff" stroke="#1A1A1C" stroke-width="0.4"/>
    <rect x="705" y="316" width="6" height="2" fill="#C8102E"/>
    <rect x="705" y="322" width="6" height="2" fill="#C8102E"/>
  </g>

  <!-- Hint badge -->
  <rect x="600" y="334" width="116" height="14" rx="2" fill="#FFF8E6" stroke="#E8D88A"/>
  <text x="658" y="344" font-family="Inter, Arial, sans-serif" font-size="7" fill="#8A6F1A" font-weight="700" text-anchor="middle">⚡ El. FEDERLEISTE</text>

  <!-- Barcode mini -->
  <g stroke="#1A1A1C" stroke-width="0.8">
    <line x1="616" y1="356" x2="616" y2="378"/>
    <line x1="619" y1="356" x2="619" y2="378" stroke-width="1.5"/>
    <line x1="623" y1="356" x2="623" y2="378"/>
    <line x1="627" y1="356" x2="627" y2="378" stroke-width="1.5"/>
    <line x1="631" y1="356" x2="631" y2="378"/>
    <line x1="635" y1="356" x2="635" y2="378"/>
    <line x1="639" y1="356" x2="639" y2="378" stroke-width="1.5"/>
    <line x1="643" y1="356" x2="643" y2="378"/>
    <line x1="647" y1="356" x2="647" y2="378" stroke-width="1.5"/>
    <line x1="651" y1="356" x2="651" y2="378"/>
    <line x1="655" y1="356" x2="655" y2="378" stroke-width="1.5"/>
    <line x1="659" y1="356" x2="659" y2="378"/>
    <line x1="663" y1="356" x2="663" y2="378"/>
    <line x1="667" y1="356" x2="667" y2="378" stroke-width="1.5"/>
    <line x1="671" y1="356" x2="671" y2="378"/>
    <line x1="675" y1="356" x2="675" y2="378" stroke-width="1.5"/>
    <line x1="679" y1="356" x2="679" y2="378"/>
    <line x1="683" y1="356" x2="683" y2="378"/>
    <line x1="687" y1="356" x2="687" y2="378" stroke-width="1.5"/>
    <line x1="691" y1="356" x2="691" y2="378"/>
    <line x1="695" y1="356" x2="695" y2="378" stroke-width="1.5"/>
    <line x1="699" y1="356" x2="699" y2="378"/>
  </g>
  <text x="658" y="388" font-family="Inter, Arial, sans-serif" font-size="6" fill="#1A1A1C" font-weight="700" text-anchor="middle">4502 120200 H3</text>

  <!-- Watermark -->
  <text x="400" y="492" font-family="Inter, Arial, sans-serif" font-size="9" fill="#B0AEA8" text-anchor="middle" letter-spacing="2">MUSTER · VORSCHAU</text>
</svg>
